<?xml version="1.0" encoding="UTF-8" standalone="no"?>
<!-- Created with Inkscape (http://www.inkscape.org/) -->

<svg
   xmlns:dc="http://purl.org/dc/elements/1.1/"
   xmlns:cc="http://creativecommons.org/ns#"
   xmlns:rdf="http://www.w3.org/1999/02/22-rdf-syntax-ns#"
   xmlns:svg="http://www.w3.org/2000/svg"
   xmlns="http://www.w3.org/2000/svg"
   xmlns:xlink="http://www.w3.org/1999/xlink"
   xmlns:sodipodi="http://sodipodi.sourceforge.net/DTD/sodipodi-0.dtd"
   xmlns:inkscape="http://www.inkscape.org/namespaces/inkscape"
   width="200"
   height="200"
   id="svg2"
   version="1.1"
   inkscape:version="0.48.0 r9654"
   sodipodi:docname="myo_back.svg"
   inkscape:export-filename="/Users/dave/Desktop/myo_back.png"
   inkscape:export-xdpi="90"
   inkscape:export-ydpi="90">
  <defs
     id="defs4" />
  <sodipodi:namedview
     id="base"
     pagecolor="#424242"
     bordercolor="#666666"
     borderopacity="1.0"
     inkscape:pageopacity="1"
     inkscape:pageshadow="2"
     inkscape:zoom="2.8284271"
     inkscape:cx="129.48549"
     inkscape:cy="84.928368"
     inkscape:document-units="px"
     inkscape:current-layer="layer1"
     showgrid="false"
     inkscape:window-width="1351"
     inkscape:window-height="840"
     inkscape:window-x="0"
     inkscape:window-y="0"
     inkscape:window-maximized="0" />
  <metadata
     id="metadata7">
    <rdf:RDF>
      <cc:Work
         rdf:about="">
        <dc:format>image/svg+xml</dc:format>
        <dc:type
           rdf:resource="http://purl.org/dc/dcmitype/StillImage" />
        <dc:title></dc:title>
      </cc:Work>
    </rdf:RDF>
  </metadata>
  <g
     inkscape:groupmode="layer"
     id="layer2"
     inkscape:label="Background"
     transform="translate(0,-800)"
     style="display:none">
    <rect
       style="opacity:0.98999999;fill:#383d66;fill-opacity:1;stroke:none"
       id="rect2986"
       width="200"
       height="1000"
       x="0"
       y="-2.2737368e-13" />
  </g>
  <g
     inkscape:label="Layer 1"
     inkscape:groupmode="layer"
     id="layer1"
     transform="translate(0,-852.36217)"
     style="display:inline">
    <g
       id="g4050">
      <use
         height="1000"
         width="200"
         transform="matrix(1,0,0,-1,100.65475,1745.7313)"
         id="use3917"
         xlink:href="#g3831"
         y="0"
         x="0" />
      <use
         height="1000"
         width="200"
         transform="matrix(1,0,0,-1,21.03747,1745.5461)"
         id="use3919"
         xlink:href="#g3827"
         y="0"
         x="0" />
      <use
         x="0"
         y="0"
         xlink:href="#g3887"
         id="use3921"
         transform="matrix(1,0,0,-1,-19.71562,1745.9047)"
         width="200"
         height="200" />
      <use
         height="200"
         width="200"
         transform="matrix(1,0,0,-1,60.28438,1745.9047)"
         id="use3925"
         xlink:href="#g3887"
         y="0"
         x="0" />
      <use
         x="0"
         y="0"
         xlink:href="#g3827"
         id="use3927"
         transform="matrix(1,0,0,-1,41.03747,1745.5461)"
         width="200"
         height="1000" />
      <use
         height="1000"
         width="200"
         transform="matrix(1,0,0,-1,101.03747,1745.5461)"
         id="use3929"
         xlink:href="#g3827"
         y="0"
         x="0" />
      <use
         x="0"
         y="0"
         xlink:href="#g3827"
         id="use3931"
         transform="matrix(1,0,0,-1,141.03747,1745.5461)"
         width="200"
         height="1000" />
      <use
         x="0"
         y="0"
         xlink:href="#g3827"
         id="use3933"
         transform="matrix(1,0,0,-1,61.03747,1745.5461)"
         width="200"
         height="1000" />
      <use
         x="0"
         y="0"
         xlink:href="#g3831"
         id="use3935"
         transform="matrix(1,0,0,-1,160.65475,1745.7313)"
         width="200"
         height="1000" />
      <use
         height="200"
         width="200"
         transform="matrix(1,0,0,-1,-99.71562,1745.9047)"
         id="use3937"
         xlink:href="#g3887"
         y="0"
         x="0" />
      <use
         height="1000"
         width="200"
         transform="matrix(1,0,0,-1,201.03747,1745.5461)"
         id="use4048"
         xlink:href="#g3827"
         y="0"
         x="0" />
    </g>
    <rect
       y="890.10962"
       x="-13.35673"
       height="4.5"
       width="238"
       id="rect3853"
       style="opacity:0.98999999000000005;fill:#8cb0e5;fill-opacity:1;stroke:#8cb0e5" />
    <g
       id="g4081"
       transform="translate(-12,0)">
      <g
         transform="translate(70.636282,783.87431)"
         id="g3831">
        <path
           style="font-size:medium;font-style:normal;font-variant:normal;font-weight:normal;font-stretch:normal;text-indent:0;text-align:start;text-decoration:none;line-height:normal;letter-spacing:normal;word-spacing:normal;text-transform:none;direction:ltr;block-progression:tb;writing-mode:lr-tb;text-anchor:start;baseline-shift:baseline;color:#000000;fill:#de676f;fill-opacity:1;stroke:#c48185;stroke-width:0.50000000000000000;marker:none;visibility:visible;display:inline;overflow:visible;enable-background:accumulate;font-family:Sans;-inkscape-font-specification:Sans"
           d="m -48.03125,87.59375 -2.6875,2.96875 10.59375,9.65625 2.71875,-2.9375 -10.625,-9.6875 z"
           id="path3778"
           inkscape:connector-curvature="0" />
        <path
           sodipodi:type="arc"
           style="opacity:0.98999999000000005;fill:#de676f;fill-opacity:1;stroke:#c48185;stroke-width:0.50000000000000000"
           id="path3780"
           sodipodi:cx="-40.432098"
           sodipodi:cy="44.999496"
           sodipodi:rx="3.3950617"
           sodipodi:ry="5.4933252"
           d="m -37.037037,44.999496 c 0,3.03388 -1.520021,5.493326 -3.395061,5.493326 -1.875041,0 -3.395062,-2.459446 -3.395062,-5.493326 0,-3.033879 1.520021,-5.493325 3.395062,-5.493325 1.87504,0 3.395061,2.459446 3.395061,5.493325 z"
           transform="translate(2,57.062388)" />
      </g>
      <g
         transform="translate(-3.309457,-1.0366535)"
         id="g3887">
        <path
           style="font-size:medium;font-style:normal;font-variant:normal;font-weight:normal;font-stretch:normal;text-indent:0;text-align:start;text-decoration:none;line-height:normal;letter-spacing:normal;word-spacing:normal;text-transform:none;direction:ltr;block-progression:tb;writing-mode:lr-tb;text-anchor:start;baseline-shift:baseline;color:#000000;fill:#de676f;fill-opacity:1;stroke:#c48185;stroke-width:0.5;marker:none;visibility:visible;display:inline;overflow:visible;enable-background:accumulate;font-family:Sans;-inkscape-font-specification:Sans"
           d="m 106.5,872.9375 -3.125,2.46875 8.59375,10.96875 3.15625,-2.46875 -8.625,-10.96875 z"
           id="path3778-2"
           inkscape:connector-curvature="0" />
        <path
           transform="matrix(0.7597983,0.65015886,-0.65015886,0.7597983,171.16539,879.73918)"
           sodipodi:type="arc"
           style="opacity:0.98999999000000005;fill:#de676f;fill-opacity:1;stroke:#c48185;stroke-width:0.50000000000000000"
           id="path3780-9"
           sodipodi:cx="-40.432098"
           sodipodi:cy="44.999496"
           sodipodi:rx="3.3950617"
           sodipodi:ry="5.4933252"
           d="m -37.037037,44.999496 c 0,3.03388 -1.520021,5.493326 -3.395061,5.493326 -1.875041,0 -3.395062,-2.459446 -3.395062,-5.493326 0,-3.033879 1.520021,-5.493325 3.395062,-5.493325 1.87504,0 3.395061,2.459446 3.395061,5.493325 z" />
      </g>
      <g
         transform="translate(50.253565,823.68912)"
         id="g3827">
        <path
           style="font-size:medium;font-style:normal;font-variant:normal;font-weight:normal;font-stretch:normal;text-indent:0;text-align:start;text-decoration:none;line-height:normal;letter-spacing:normal;word-spacing:normal;text-transform:none;direction:ltr;block-progression:tb;writing-mode:lr-tb;text-anchor:start;baseline-shift:baseline;color:#000000;fill:#de676f;fill-opacity:1;stroke:#c48185;stroke-width:0.50000000000000000;marker:none;visibility:visible;display:inline;overflow:visible;enable-background:accumulate;font-family:Sans;-inkscape-font-specification:Sans"
           d="m -48.53125,47.28125 -1.6875,3.59375 10.59375,5 1.71875,-3.625 -10.625,-4.96875 z"
           id="path3823"
           inkscape:connector-curvature="0" />
        <path
           transform="translate(2,12.36217)"
           d="m -37.037037,44.999496 c 0,3.03388 -1.520021,5.493326 -3.395061,5.493326 -1.875041,0 -3.395062,-2.459446 -3.395062,-5.493326 0,-3.033879 1.520021,-5.493325 3.395062,-5.493325 1.87504,0 3.395061,2.459446 3.395061,5.493325 z"
           sodipodi:ry="5.4933252"
           sodipodi:rx="3.3950617"
           sodipodi:cy="44.999496"
           sodipodi:cx="-40.432098"
           id="path3825"
           style="opacity:0.98999999000000005;fill:#de676f;fill-opacity:1;stroke:#c48185;stroke-opacity:1;stroke-width:0.5"
           sodipodi:type="arc" />
      </g>
      <use
         height="1000"
         width="200"
         transform="translate(60,0)"
         id="use3839"
         xlink:href="#g3827"
         y="0"
         x="0" />
      <use
         height="1000"
         width="200"
         transform="translate(80,0)"
         id="use3841"
         xlink:href="#g3827"
         y="0"
         x="0" />
      <use
         x="0"
         y="0"
         xlink:href="#g3827"
         id="use3843"
         transform="translate(40,0)"
         width="200"
         height="1000" />
      <use
         x="0"
         y="0"
         xlink:href="#g3827"
         id="use3845"
         transform="translate(120,0)"
         width="200"
         height="1000" />
      <use
         height="1000"
         width="200"
         transform="translate(120,0)"
         id="use3847"
         xlink:href="#g3831"
         y="0"
         x="0" />
      <use
         height="1000"
         width="200"
         transform="translate(160,0)"
         id="use3849"
         xlink:href="#g3827"
         y="0"
         x="0" />
      <use
         x="0"
         y="0"
         xlink:href="#g3827"
         id="use3851"
         transform="translate(180,0)"
         width="200"
         height="1000" />
      <use
         height="1000"
         width="200"
         transform="translate(200,0)"
         id="use4079"
         xlink:href="#g3827"
         y="0"
         x="0" />
    </g>
    <rect
       style="opacity:0.98999999000000005;fill:#f4515b;fill-opacity:1;stroke:#f4515b;stroke-width:0.5"
       id="rect3756"
       width="238"
       height="4.5"
       x="-13.35673"
       y="870.10931" />
    <use
       x="0"
       y="0"
       xlink:href="#rect3853"
       id="use3863"
       transform="translate(0,40.000633)"
       width="200"
       height="1000" />
    <use
       height="1000"
       width="200"
       transform="translate(0,80.001274)"
       id="use3867"
       xlink:href="#rect3853"
       y="0"
       x="0" />
    <use
       height="1000"
       width="200"
       transform="translate(0,120.00191)"
       id="use3871"
       xlink:href="#rect3853"
       y="0"
       x="0" />
    <rect
       style="opacity:0.98999999000000005;fill:#8cb0e5;fill-opacity:1;stroke:#8cb0e5"
       id="rect3879"
       width="238"
       height="2.25"
       x="-13.35673"
       y="852.35901" />
    <rect
       y="1050.1122"
       x="-13.35673"
       height="2.25"
       width="238"
       id="rect3881"
       style="opacity:0.98999999000000005;fill:#8cb0e5;fill-opacity:1;stroke:#8cb0e5" />
    <path
       style="fill:none;stroke:#000000;stroke-width:1px;stroke-linecap:butt;stroke-linejoin:miter;stroke-opacity:1"
       d="m -0.851852,835.356 20.21605,0"
       id="path3897"
       inkscape:connector-curvature="0" />
    <g
       id="g4102"
       transform="matrix(1,0,0,-1,-251.52127,1765.2079)">
      <use
         height="1000"
         width="200"
         transform="translate(371.69218,-19.651128)"
         id="use3967"
         xlink:href="#g3827"
         y="0"
         x="0" />
      <use
         x="0"
         y="0"
         xlink:href="#g3887"
         id="use3969"
         transform="translate(170.93909,-20.009659)"
         width="200"
         height="200" />
      <use
         x="0"
         y="0"
         xlink:href="#g3827"
         id="use3971"
         transform="translate(251.69218,-19.651128)"
         width="200"
         height="1000" />
      <use
         height="200"
         width="200"
         transform="translate(210.93909,-20.009659)"
         id="use3973"
         xlink:href="#g3887"
         y="0"
         x="0" />
      <use
         x="0"
         y="0"
         xlink:href="#g3827"
         id="use3975"
         transform="translate(291.69218,-19.651128)"
         width="200"
         height="1000" />
      <use
         height="1000"
         width="200"
         transform="translate(351.69218,-19.651128)"
         id="use3977"
         xlink:href="#g3827"
         y="0"
         x="0" />
      <use
         x="0"
         y="0"
         xlink:href="#g3827"
         id="use3979"
         transform="translate(391.69218,-19.651128)"
         width="200"
         height="1000" />
      <use
         x="0"
         y="0"
         xlink:href="#g3827"
         id="use3981"
         transform="translate(331.69218,-19.651128)"
         width="200"
         height="1000" />
      <use
         x="0"
         y="0"
         xlink:href="#g3831"
         id="use3983"
         transform="translate(391.30946,-19.836318)"
         width="200"
         height="1000" />
      <use
         x="0"
         y="0"
         xlink:href="#g3827"
         id="use3995"
         transform="translate(431.69218,-19.651128)"
         width="200"
         height="1000" />
      <use
         height="1000"
         width="200"
         transform="translate(451.69218,-19.651128)"
         id="use4100"
         xlink:href="#g3827"
         y="0"
         x="0" />
    </g>
    <g
       id="g4147"
       transform="translate(-260,-40)">
      <use
         x="0"
         y="0"
         xlink:href="#g3887"
         id="use4125"
         transform="translate(210.93909,79.99039)"
         width="200"
         height="200" />
      <use
         height="200"
         width="200"
         transform="translate(150.93909,79.99039)"
         id="use4127"
         xlink:href="#g3887"
         y="0"
         x="0" />
      <use
         height="200"
         width="200"
         transform="translate(350.93909,79.99039)"
         id="use4129"
         xlink:href="#g3887"
         y="0"
         x="0" />
      <use
         x="0"
         y="0"
         xlink:href="#g3827"
         id="use4131"
         transform="translate(271.69218,80.348921)"
         width="200"
         height="1000" />
      <use
         height="1000"
         width="200"
         transform="translate(291.69218,80.348921)"
         id="use4133"
         xlink:href="#g3827"
         y="0"
         x="0" />
      <use
         x="0"
         y="0"
         xlink:href="#g3827"
         id="use4135"
         transform="translate(351.69218,80.348921)"
         width="200"
         height="1000" />
      <use
         height="1000"
         width="200"
         transform="translate(431.69218,80.348921)"
         id="use4137"
         xlink:href="#g3827"
         y="0"
         x="0" />
      <use
         x="0"
         y="0"
         xlink:href="#g3827"
         id="use4139"
         transform="translate(411.69218,80.348921)"
         width="200"
         height="1000" />
      <use
         height="1000"
         width="200"
         transform="translate(371.69218,80.348921)"
         id="use4141"
         xlink:href="#g3827"
         y="0"
         x="0" />
      <use
         height="1000"
         width="200"
         transform="translate(311.30946,80.163731)"
         id="use4143"
         xlink:href="#g3831"
         y="0"
         x="0" />
      <use
         x="0"
         y="0"
         xlink:href="#g3831"
         id="use4145"
         transform="translate(371.30946,80.163731)"
         width="200"
         height="1000" />
    </g>
    <use
       x="0"
       y="0"
       xlink:href="#rect3756"
       id="use3861"
       transform="translate(0,40.000641)"
       width="200"
       height="1000" />
    <g
       id="g4180"
       transform="matrix(1,0,0,-1,-251.51235,1905.0243)">
      <use
         x="0"
         y="0"
         xlink:href="#g3827"
         id="use4160"
         transform="translate(251.69218,80.348921)"
         width="200"
         height="1000" />
      <use
         height="1000"
         width="200"
         transform="translate(291.69218,80.348921)"
         id="use4162"
         xlink:href="#g3827"
         y="0"
         x="0" />
      <use
         x="0"
         y="0"
         xlink:href="#g3827"
         id="use4164"
         transform="translate(431.69218,80.348921)"
         width="200"
         height="1000" />
      <use
         height="1000"
         width="200"
         transform="translate(411.69218,80.348921)"
         id="use4166"
         xlink:href="#g3827"
         y="0"
         x="0" />
      <use
         x="0"
         y="0"
         xlink:href="#g3827"
         id="use4168"
         transform="translate(331.69218,80.348921)"
         width="200"
         height="1000" />
      <use
         height="1000"
         width="200"
         transform="translate(391.69218,80.348921)"
         id="use4170"
         xlink:href="#g3827"
         y="0"
         x="0" />
      <use
         height="1000"
         width="200"
         transform="translate(351.30946,80.163731)"
         id="use4172"
         xlink:href="#g3831"
         y="0"
         x="0" />
      <use
         x="0"
         y="0"
         xlink:href="#g3831"
         id="use4174"
         transform="translate(291.30946,80.163731)"
         width="200"
         height="1000" />
      <use
         x="0"
         y="0"
         xlink:href="#g3887"
         id="use4176"
         transform="translate(170.93909,79.99039)"
         width="200"
         height="200" />
      <use
         height="200"
         width="200"
         transform="translate(250.93909,79.99039)"
         id="use4178"
         xlink:href="#g3887"
         y="0"
         x="0" />
    </g>
    <g
       id="g4216"
       transform="translate(-258,-0.32736425)">
      <use
         x="0"
         y="0"
         xlink:href="#g3827"
         id="use4194"
         transform="translate(271.69218,80.348921)"
         width="200"
         height="1000" />
      <use
         x="0"
         y="0"
         xlink:href="#g3887"
         id="use4196"
         transform="translate(190.93909,79.99039)"
         width="200"
         height="200" />
      <use
         x="0"
         y="0"
         xlink:href="#g3827"
         id="use4198"
         transform="translate(251.69218,80.348921)"
         width="200"
         height="1000" />
      <use
         height="1000"
         width="200"
         transform="translate(311.69218,80.348921)"
         id="use4200"
         xlink:href="#g3827"
         y="0"
         x="0" />
      <use
         x="0"
         y="0"
         xlink:href="#g3827"
         id="use4202"
         transform="translate(331.69218,80.348921)"
         width="200"
         height="1000" />
      <use
         height="1000"
         width="200"
         transform="translate(351.69218,80.348921)"
         id="use4204"
         xlink:href="#g3827"
         y="0"
         x="0" />
      <use
         x="0"
         y="0"
         xlink:href="#g3827"
         id="use4206"
         transform="translate(411.69218,80.348921)"
         width="200"
         height="1000" />
      <use
         height="1000"
         width="200"
         transform="translate(351.30946,80.163731)"
         id="use4208"
         xlink:href="#g3831"
         y="0"
         x="0" />
      <use
         x="0"
         y="0"
         xlink:href="#g3831"
         id="use4210"
         transform="translate(371.30946,80.163731)"
         width="200"
         height="1000" />
      <use
         height="1000"
         width="200"
         transform="translate(431.69218,80.348921)"
         id="use4212"
         xlink:href="#g3827"
         y="0"
         x="0" />
      <use
         x="0"
         y="0"
         xlink:href="#g3827"
         id="use4214"
         transform="translate(451.69218,80.348921)"
         width="200"
         height="1000" />
    </g>
    <use
       height="1000"
       width="200"
       transform="translate(0,80.001274)"
       id="use3865"
       xlink:href="#rect3756"
       y="0"
       x="0" />
    <g
       id="g4342"
       transform="translate(-258,120)">
      <use
         x="0"
         y="0"
         xlink:href="#g3831"
         id="use3891"
         transform="translate(351.30946,40.163731)"
         width="200"
         height="1000" />
      <use
         x="0"
         y="0"
         xlink:href="#g3827"
         id="use3893"
         transform="translate(311.69218,40.348921)"
         width="200"
         height="1000" />
      <use
         height="200"
         width="200"
         transform="translate(170.93909,39.99039)"
         id="use3895"
         xlink:href="#g3887"
         y="0"
         x="0" />
      <use
         height="1000"
         width="200"
         transform="translate(251.69218,40.348921)"
         id="use3901"
         xlink:href="#g3827"
         y="0"
         x="0" />
      <use
         x="0"
         y="0"
         xlink:href="#g3887"
         id="use3905"
         transform="translate(310.93909,39.99039)"
         width="200"
         height="200" />
      <use
         height="1000"
         width="200"
         transform="translate(291.69218,40.348921)"
         id="use3907"
         xlink:href="#g3827"
         y="0"
         x="0" />
      <use
         x="0"
         y="0"
         xlink:href="#g3827"
         id="use3909"
         transform="translate(351.69218,40.348921)"
         width="200"
         height="1000" />
      <use
         height="1000"
         width="200"
         transform="translate(391.69218,40.348921)"
         id="use3911"
         xlink:href="#g3827"
         y="0"
         x="0" />
      <use
         height="1000"
         width="200"
         transform="translate(331.69218,40.348921)"
         id="use3913"
         xlink:href="#g3827"
         y="0"
         x="0" />
      <use
         height="1000"
         width="200"
         transform="translate(411.30946,40.163731)"
         id="use3915"
         xlink:href="#g3831"
         y="0"
         x="0" />
      <use
         x="0"
         y="0"
         xlink:href="#g3827"
         id="use4192"
         transform="translate(451.69218,40.348921)"
         width="200"
         height="1000" />
      <use
         x="0"
         y="0"
         xlink:href="#g3887"
         id="use4231"
         transform="translate(170.93909,39.99039)"
         width="200"
         height="200" />
    </g>
    <g
       id="g4255"
       transform="matrix(1,0,0,-1,-260,1944.7095)">
      <use
         x="0"
         y="0"
         xlink:href="#g3827"
         id="use4229"
         transform="translate(271.69218,80.348921)"
         width="200"
         height="1000" />
      <use
         height="200"
         width="200"
         transform="translate(150.93909,79.99039)"
         id="use4235"
         xlink:href="#g3887"
         y="0"
         x="0" />
      <use
         x="0"
         y="0"
         xlink:href="#g3887"
         id="use4237"
         transform="translate(350.93909,79.99039)"
         width="200"
         height="200" />
      <use
         x="0"
         y="0"
         xlink:href="#g3831"
         id="use4239"
         transform="translate(351.30946,80.163731)"
         width="200"
         height="1000" />
      <use
         height="1000"
         width="200"
         transform="translate(331.30946,80.163731)"
         id="use4241"
         xlink:href="#g3831"
         y="0"
         x="0" />
      <use
         x="0"
         y="0"
         xlink:href="#g3831"
         id="use4243"
         transform="translate(271.30946,80.163731)"
         width="200"
         height="1000" />
      <use
         x="0"
         y="0"
         xlink:href="#g3827"
         id="use4245"
         transform="translate(311.69218,80.348921)"
         width="200"
         height="1000" />
      <use
         height="1000"
         width="200"
         transform="translate(331.69218,80.348921)"
         id="use4247"
         xlink:href="#g3827"
         y="0"
         x="0" />
      <use
         x="0"
         y="0"
         xlink:href="#g3827"
         id="use4249"
         transform="translate(391.69218,80.348921)"
         width="200"
         height="1000" />
      <use
         height="1000"
         width="200"
         transform="translate(411.69218,80.348921)"
         id="use4251"
         xlink:href="#g3827"
         y="0"
         x="0" />
      <use
         x="0"
         y="0"
         xlink:href="#g3827"
         id="use4253"
         transform="translate(431.69218,80.348921)"
         width="200"
         height="1000" />
    </g>
    <g
       id="g4329"
       transform="matrix(1,0,0,-1,-256,1984.7095)">
      <use
         height="200"
         width="200"
         transform="translate(210.93909,79.99039)"
         id="use4272"
         xlink:href="#g3887"
         y="0"
         x="0" />
      <use
         height="200"
         width="200"
         transform="translate(230.93909,79.99039)"
         id="use4280"
         xlink:href="#g3887"
         y="0"
         x="0" />
      <use
         height="1000"
         width="200"
         transform="translate(331.30946,80.163731)"
         id="use4282"
         xlink:href="#g3831"
         y="0"
         x="0" />
      <use
         x="0"
         y="0"
         xlink:href="#g3831"
         id="use4284"
         transform="translate(271.30946,80.163731)"
         width="200"
         height="1000" />
      <use
         height="1000"
         width="200"
         transform="translate(431.30946,80.16373)"
         id="use4290"
         xlink:href="#g3831"
         y="0"
         x="0" />
      <use
         x="0"
         y="0"
         xlink:href="#g3831"
         id="use4292"
         transform="translate(231.30946,80.16373)"
         width="200"
         height="1000" />
      <use
         height="1000"
         width="200"
         transform="translate(271.69218,80.34892)"
         id="use4296"
         xlink:href="#g3827"
         y="0"
         x="0" />
      <use
         x="0"
         y="0"
         xlink:href="#g3827"
         id="use4306"
         transform="translate(431.69218,80.34892)"
         width="200"
         height="1000" />
      <use
         height="1000"
         width="200"
         transform="translate(411.69218,80.34892)"
         id="use4308"
         xlink:href="#g3827"
         y="0"
         x="0" />
      <use
         x="0"
         y="0"
         xlink:href="#g3827"
         id="use4310"
         transform="translate(391.69218,80.34892)"
         width="200"
         height="1000" />
      <use
         height="1000"
         width="200"
         transform="translate(371.69218,80.34892)"
         id="use4312"
         xlink:href="#g3827"
         y="0"
         x="0" />
    </g>
    <g
       id="g4316"
       transform="translate(-260,0)">
      <use
         height="1000"
         width="200"
         transform="translate(251.69218,120.34892)"
         id="use4270"
         xlink:href="#g3827"
         y="0"
         x="0" />
      <use
         x="0"
         y="0"
         xlink:href="#g3887"
         id="use4274"
         transform="translate(190.93909,119.99039)"
         width="200"
         height="200" />
      <use
         height="200"
         width="200"
         transform="translate(250.93909,119.99039)"
         id="use4276"
         xlink:href="#g3887"
         y="0"
         x="0" />
      <use
         x="0"
         y="0"
         xlink:href="#g3887"
         id="use4278"
         transform="translate(310.93909,119.99039)"
         width="200"
         height="200" />
      <use
         height="1000"
         width="200"
         transform="translate(311.30946,120.16373)"
         id="use4286"
         xlink:href="#g3831"
         y="0"
         x="0" />
      <use
         x="0"
         y="0"
         xlink:href="#g3827"
         id="use4294"
         transform="translate(271.69218,120.34892)"
         width="200"
         height="1000" />
      <use
         x="0"
         y="0"
         xlink:href="#g3827"
         id="use4298"
         transform="translate(311.69218,120.34892)"
         width="200"
         height="1000" />
      <use
         height="1000"
         width="200"
         transform="translate(371.69218,120.34892)"
         id="use4300"
         xlink:href="#g3827"
         y="0"
         x="0" />
      <use
         x="0"
         y="0"
         xlink:href="#g3827"
         id="use4302"
         transform="translate(391.69218,120.34892)"
         width="200"
         height="1000" />
      <use
         height="1000"
         width="200"
         transform="translate(431.69218,120.34892)"
         id="use4304"
         xlink:href="#g3827"
         y="0"
         x="0" />
      <use
         x="0"
         y="0"
         xlink:href="#g3827"
         id="use4314"
         transform="translate(451.69218,120.34892)"
         width="200"
         height="1000" />
    </g>
    <use
       x="0"
       y="0"
       xlink:href="#rect3756"
       id="use3873"
       transform="translate(0,160.00255)"
       width="200"
       height="1000" />
    <use
       x="0"
       y="0"
       xlink:href="#rect3756"
       id="use3869"
       transform="translate(0,120.00191)"
       width="200"
       height="1000" />
  </g>
</svg>
